<?xml version="1.0" standalone="no"?>
<!DOCTYPE svg PUBLIC "-//W3C//DTD SVG 20010904//EN"
 "http://www.w3.org/TR/2001/REC-SVG-20010904/DTD/svg10.dtd">
<svg version="1.0" xmlns="http://www.w3.org/2000/svg"
 width="128.000000pt" height="128.000000pt" viewBox="0 0 128.000000 128.000000"
 preserveAspectRatio="xMidYMid meet">
<metadata>
Created by potrace 1.14, written by Peter Selinger 2001-2017
</metadata>
<g transform="translate(0.000000,128.000000) scale(0.100000,-0.100000)"
fill="#000000" stroke="none">
<path d="M790 1260 c28 -24 21 -37 -10 -20 -13 7 -20 7 -16 2 3 -6 0 -13 -6
-15 -7 -3 -3 -6 10 -6 12 -1 22 -5 22 -11 0 -13 -50 7 -64 26 -10 13 -16 12
-49 -4 -21 -10 -35 -21 -31 -24 3 -4 -4 -4 -16 -1 -20 5 -22 3 -18 -20 5 -25
3 -27 -28 -27 -43 0 -64 9 -64 27 0 10 -7 14 -20 10 -13 -3 -20 0 -20 9 0 8
-4 14 -10 14 -5 0 -7 -6 -4 -13 3 -9 -6 -12 -34 -9 -26 3 -42 -1 -51 -12 -20
-23 -29 -20 -36 14 -8 35 -23 38 -59 9 -25 -19 -31 -20 -71 -9 -24 7 -43 17
-42 22 1 6 -4 13 -12 16 -8 3 -11 0 -7 -7 5 -7 -4 -11 -28 -11 -31 0 -36 -4
-47 -37 -8 -25 -10 -72 -6 -144 5 -101 4 -108 -16 -126 -16 -13 -18 -14 -9 -2
11 14 9 17 -17 21 l-30 4 0 -78 c0 -43 4 -78 8 -78 15 0 33 29 28 44 -4 9 7
22 29 35 40 24 48 26 38 9 -5 -7 -2 -9 7 -6 53 20 56 19 52 -6 -4 -20 0 -28
21 -37 14 -7 26 -16 26 -21 0 -5 4 -7 9 -3 6 3 3 18 -7 35 -23 39 -11 46 43
25 25 -9 55 -15 66 -12 24 7 26 -18 2 -33 -17 -11 -17 -11 0 -6 28 9 19 -46
-10 -59 -15 -6 -23 -18 -23 -33 0 -21 3 -23 27 -17 16 4 29 8 31 10 2 1 7 39
11 83 10 93 15 106 40 92 10 -5 21 -7 24 -3 4 3 4 -5 1 -18 -2 -13 -7 -43 -10
-66 l-6 -41 68 33 c71 34 170 62 181 51 3 -3 -8 -9 -25 -12 -18 -4 -32 -9 -32
-13 0 -11 140 -7 140 4 0 6 5 2 11 -7 18 -32 32 -21 25 21 -4 27 -2 41 7 44 9
4 9 6 0 6 -7 1 -13 7 -13 14 0 15 64 80 71 72 3 -3 6 2 6 10 0 20 -1 20 -42
-22 l-36 -38 5 91 c7 117 15 137 63 157 63 25 132 32 138 15 9 -22 -20 -123
-34 -121 -6 2 -11 -2 -11 -7 0 -5 4 -10 9 -10 5 0 2 -27 -6 -60 -14 -53 -17
-59 -32 -48 -14 12 -14 11 -2 -5 10 -12 12 -31 7 -66 l-6 -48 57 -7 c56 -6
117 -35 127 -59 2 -7 5 2 5 20 1 24 -3 31 -13 27 -8 -3 -17 0 -22 7 -5 8 -3
10 7 4 8 -5 7 0 -3 12 -23 25 -23 36 3 59 17 16 20 26 15 61 l-6 43 35 0 c23
0 41 8 55 22 20 22 22 22 65 7 53 -19 60 -14 10 7 -23 9 -35 21 -35 34 0 11
-6 20 -13 20 -7 0 -18 14 -24 30 -9 25 -9 30 4 30 10 0 14 6 10 20 -3 11 0 20
6 20 7 0 5 5 -3 10 -8 5 -12 10 -8 10 3 0 -7 13 -23 29 -16 16 -29 37 -29 45
0 14 -19 16 -143 16 -101 0 -147 -4 -156 -12 -11 -10 -14 -10 -18 0 -3 6 -12
12 -20 12 -12 0 -10 -5 7 -20z m-282 -160 c-7 -10 -14 -18 -15 -16 -6 6 9 36
18 36 5 0 4 -9 -3 -20z m239 -122 c-2 -13 -4 -5 -4 17 -1 22 1 32 4 23 2 -10
2 -28 0 -40z m-391 26 c-21 -21 -20 -30 6 -48 21 -15 21 -16 3 -36 -34 -38
-115 -35 -115 4 0 21 77 96 100 96 19 0 20 -1 6 -16z m14 -14 c0 -5 -5 -10
-11 -10 -5 0 -7 5 -4 10 3 6 8 10 11 10 2 0 4 -4 4 -10z m377 -142 c-2 -13 -4
-5 -4 17 -1 22 1 32 4 23 2 -10 2 -28 0 -40z m292 16 c-10 -12 -10 -20 -1 -35
8 -12 8 -19 2 -19 -6 0 -15 10 -19 23 -7 16 -5 25 7 35 22 17 27 15 11 -4z"/>
<path d="M485 1260 c3 -5 8 -10 11 -10 2 0 4 5 4 10 0 6 -5 10 -11 10 -5 0 -7
-4 -4 -10z"/>
<path d="M613 1257 c2 -6 17 -11 35 -13 24 -3 32 0 32 11 0 12 -9 15 -35 13
-19 -1 -34 -6 -32 -11z"/>
<path d="M570 1200 c0 -5 5 -10 10 -10 6 0 10 5 10 10 0 6 -4 10 -10 10 -5 0
-10 -4 -10 -10z"/>
<path d="M845 1110 c-3 -5 -11 -8 -18 -6 -7 1 -8 1 -4 -2 4 -2 2 -11 -5 -20
-10 -14 -9 -14 8 1 11 9 23 15 26 12 2 -3 5 2 5 10 0 17 -3 19 -12 5z"/>
<path d="M871 1086 c2 -2 15 -9 29 -15 24 -11 24 -11 6 3 -16 13 -49 24 -35
12z"/>
<path d="M869 1003 c-13 -16 -12 -17 4 -4 9 7 17 15 17 17 0 8 -8 3 -21 -13z"/>
<path d="M853 875 c-12 -9 -29 -12 -39 -8 -16 6 -17 5 -4 -8 15 -16 40 -21 37
-8 -1 4 7 15 18 23 26 20 16 21 -12 1z"/>
<path d="M1192 877 c-6 -7 -17 -34 -23 -60 -11 -41 -39 -74 -39 -46 0 6 -4 8
-9 5 -5 -3 -7 -15 -4 -26 3 -11 10 -17 16 -13 6 3 7 1 3 -6 -5 -7 -5 -24 -1
-39 7 -29 9 -23 58 146 16 55 16 60 -1 39z"/>
<path d="M65 847 c-21 -16 -12 -39 14 -35 10 2 25 -3 34 -10 14 -12 13 -17
-13 -55 -23 -34 -33 -41 -61 -41 l-34 -1 -3 -171 -2 -172 42 3 c24 1 50 5 59
9 26 11 52 -21 45 -58 -3 -19 0 -38 9 -50 8 -11 15 -14 15 -8 0 7 5 12 11 12
5 0 7 -5 3 -12 -5 -8 -2 -9 9 -5 27 10 67 -13 67 -39 0 -16 7 -24 23 -26 18
-2 21 -8 19 -36 -5 -45 23 -55 54 -19 25 29 50 36 41 13 -4 -9 2 -17 14 -21
16 -5 18 -10 8 -21 -9 -11 -8 -14 7 -15 11 -1 25 -1 32 0 6 1 12 -3 12 -10 0
-8 14 -10 48 -5 26 4 53 7 60 8 14 2 17 18 2 18 -15 0 -12 47 3 53 9 4 8 8 -3
16 -12 9 -11 11 8 11 13 0 41 9 63 20 37 17 40 17 34 2 -14 -32 -18 -112 -7
-112 6 0 20 -10 31 -22 17 -17 23 -19 36 -8 8 7 22 9 32 6 25 -10 31 10 21 65
-5 28 -7 56 -5 62 2 7 8 -5 12 -25 6 -31 11 -38 31 -38 13 0 24 -4 24 -9 0 -4
13 -8 28 -7 28 1 42 26 15 26 -7 0 -13 4 -13 10 0 5 14 7 33 4 57 -10 58 -10
42 -41 -14 -26 -13 -29 5 -37 11 -5 20 -15 20 -23 0 -11 4 -11 21 -1 17 11 22
10 32 -3 13 -17 41 -30 74 -34 12 -2 36 -6 53 -10 25 -5 36 -3 51 14 11 12 23
21 27 21 13 0 33 59 30 87 -2 22 -9 28 -28 30 -61 3 -130 17 -130 24 0 5 4 9
9 9 19 0 19 30 0 54 l-20 26 20 0 c23 0 28 14 10 26 -19 11 13 25 44 18 18 -4
38 1 62 16 l35 22 0 122 c0 84 -4 126 -12 134 -10 10 -10 15 -1 20 6 4 12 26
11 50 0 39 -2 42 -27 42 -24 0 -29 -6 -44 -52 -9 -29 -19 -73 -23 -98 -4 -25
-10 -47 -13 -50 -9 -8 -41 -97 -61 -169 -30 -112 -31 -48 -1 78 15 67 24 124
20 127 -5 3 -7 10 -3 15 3 6 1 22 -4 37 -6 15 -14 41 -17 57 l-7 30 -11 -30
c-15 -45 -53 -101 -123 -185 -59 -71 -124 -135 -124 -123 0 4 -10 -2 -22 -13
-30 -27 -14 -1 43 68 94 113 197 292 181 314 -15 19 -53 34 -76 28 -13 -3 -33
-1 -44 5 -24 13 -94 3 -89 -13 2 -6 13 -10 23 -8 11 2 15 0 9 -5 -6 -4 -17
-28 -24 -53 -18 -63 -89 -166 -177 -257 -41 -42 -74 -73 -74 -68 0 4 -10 0
-22 -11 -29 -25 -15 -2 38 63 92 113 184 268 184 311 0 31 -45 41 -199 43 -80
1 -95 -7 -106 -54 -7 -27 -7 -27 31 -22 22 4 47 9 58 12 11 3 17 1 14 -7 -2
-6 -28 -21 -58 -33 l-55 -22 -16 -77 -15 -77 65 36 c80 43 86 48 88 76 1 12 4
31 6 42 3 11 6 31 7 45 1 33 37 77 51 63 8 -8 5 -49 -10 -140 -26 -151 -29
-163 -43 -163 -7 0 -9 18 -6 50 3 27 1 50 -3 50 -10 0 -115 -88 -153 -129 -17
-17 -35 -31 -42 -31 -18 0 -25 29 -15 64 21 69 31 159 18 174 -9 12 -7 18 11
30 25 16 29 37 8 45 -19 7 -42 -21 -49 -58 -3 -16 -14 -65 -25 -108 -11 -43
-24 -107 -27 -143 -6 -47 -11 -62 -18 -55 -10 10 -1 97 30 286 l6 39 -34 -22
c-28 -17 -37 -32 -51 -84 -9 -35 -17 -72 -17 -84 -1 -11 -8 -29 -17 -40 -14
-17 -15 -13 -9 56 3 41 8 83 11 93 7 22 -15 22 -24 -1 -4 -9 -31 -57 -60 -105
-38 -62 -59 -87 -73 -87 -60 0 -43 194 32 341 16 32 33 60 39 64 15 9 12 25
-5 25 -9 0 -20 11 -25 25 -11 29 -19 31 -45 12z m855 -125 c0 -46 -45 -249
-58 -262 -13 -13 -14 -8 -8 43 4 38 3 57 -5 57 -5 0 -8 3 -6 8 3 4 8 36 12 72
5 45 13 72 27 87 23 24 38 22 38 -5z m-135 -468 c0 -21 -3 -59 -7 -83 -4 -29
-3 -40 3 -30 6 10 9 5 9 -18 0 -27 -4 -32 -27 -35 -36 -4 -73 19 -73 44 0 41
24 100 47 115 13 8 23 24 23 35 0 11 5 18 13 15 7 -2 12 -20 12 -43z m-235
-31 c-1 -24 -2 -26 -11 -10 -5 9 -7 22 -4 27 10 17 15 11 15 -17z m477 -59
c-1 -1 -15 0 -30 3 -19 4 -25 8 -16 13 10 7 53 -9 46 -16z m-504 -21 c-7 -2
-21 -2 -30 0 -10 3 -4 5 12 5 17 0 24 -2 18 -5z m617 -43 c0 -5 -4 -10 -10
-10 -5 0 -10 5 -10 10 0 6 5 10 10 10 6 0 10 -4 10 -10z"/>
<path d="M771 254 c0 -11 3 -14 6 -6 3 7 2 16 -1 19 -3 4 -6 -2 -5 -13z"/>
<path d="M860 836 c0 -2 8 -10 18 -17 15 -13 16 -12 3 4 -13 16 -21 21 -21 13z"/>
<path d="M216 755 c-10 -8 -15 -18 -12 -23 3 -6 3 -12 -1 -14 -9 -4 -49 -83
-58 -115 -11 -39 -23 -25 -14 15 12 52 11 61 -6 32 -18 -32 -48 -153 -43 -175
2 -12 22 8 62 61 80 107 98 144 94 193 -3 37 -4 39 -22 26z m-6 -85 c0 -5 -2
-10 -4 -10 -3 0 -8 5 -11 10 -3 6 -1 10 4 10 6 0 11 -4 11 -10z"/>
<path d="M580 130 c0 -5 7 -10 16 -10 8 0 12 5 9 10 -3 6 -10 10 -16 10 -5 0
-9 -4 -9 -10z"/>
</g>
</svg>
